<svg width="12" height="6" viewBox="0 0 12 6" fill="none" xmlns="http://www.w3.org/2000/svg">
<path d="M11.2827 1.27796C11.5743 0.983762 11.5722 0.508893 11.278 0.217309C10.9838 -0.0742744 10.5089 -0.0721557 10.2173 0.222041L8.47 1.98501C7.76086 2.7005 7.27282 3.19131 6.8593 3.52341C6.4576 3.846 6.19958 3.95668 5.9685 3.98613C5.82341 4.00462 5.67659 4.00462 5.5315 3.98613C5.30042 3.95668 5.0424 3.84601 4.64071 3.52341C4.22718 3.19131 3.73914 2.70051 3.03 1.98501L1.28269 0.222042C0.991107 -0.072155 0.516238 -0.0742736 0.222041 0.21731C-0.0721558 0.508894 -0.0742744 0.983763 0.217309 1.27796L1.99609 3.07269C2.66604 3.74866 3.21359 4.30114 3.70146 4.69294C4.20879 5.10037 4.72373 5.39531 5.34184 5.47409C5.61287 5.50864 5.88714 5.50864 6.15816 5.47409C6.77628 5.39531 7.29122 5.10037 7.79854 4.69294C8.28641 4.30114 8.83396 3.74867 9.5039 3.07269L11.2827 1.27796Z" fill="#5BDCB7"/>
</svg>
