<svg width="27" height="50" viewBox="0 0 27 50" fill="none" xmlns="http://www.w3.org/2000/svg">
<path d="M6.81537 10.5337C8.67817 4.90143 16.0508 3.69562 19.5852 8.44516C21.6556 11.2273 21.5111 15.0903 19.2389 17.7076L15.8963 21.5576C12.8627 25.0519 11.1906 29.5371 11.1906 34.1801V35.3404C11.1906 36.8585 12.4116 38.0891 13.9178 38.0891C15.424 38.0891 16.6451 36.8585 16.6451 35.3404V34.1801C16.6451 30.8687 17.8377 27.6698 20.0013 25.1776L23.3438 21.3276C27.3133 16.7554 27.5656 10.007 23.9488 5.14675C17.7744 -3.15038 4.89493 -1.04392 1.64075 8.79527L0.421456 12.4819C-0.0548545 13.922 0.717396 15.4786 2.14633 15.9587C3.57526 16.4387 5.11976 15.6604 5.59608 14.2203L6.81537 10.5337Z" fill="#F2F7F6"/>
<path d="M17.5542 46.3351C17.5542 48.3592 15.9261 50 13.9178 50C11.9095 50 10.2815 48.3592 10.2815 46.3351C10.2815 44.311 11.9095 42.6702 13.9178 42.6702C15.9261 42.6702 17.5542 44.311 17.5542 46.3351Z" fill="#F2F7F6"/>
</svg>
