<svg width="27" height="50" viewBox="0 0 27 50" fill="none" xmlns="http://www.w3.org/2000/svg">
<path d="M19.7459 39.4663C17.8831 45.0986 10.5105 46.3044 6.97608 41.5548C4.9057 38.7727 5.05014 34.9097 7.32239 32.2924L10.6649 28.4424C13.6986 24.9481 15.3707 20.4629 15.3707 15.8199L15.3707 14.6596C15.3707 13.1415 14.1497 11.9109 12.6435 11.9109C11.1372 11.9109 9.91619 13.1415 9.91619 14.6596L9.91619 15.8199C9.91619 19.1313 8.72361 22.3302 6.55999 24.8224L3.21743 28.6724C-0.752042 33.2446 -1.00436 39.993 2.61245 44.8532C8.78684 53.1504 21.6663 51.0439 24.9205 41.2047L26.1398 37.5181C26.6161 36.078 25.8439 34.5214 24.4149 34.0413C22.986 33.5613 21.4415 34.3396 20.9652 35.7797L19.7459 39.4663Z" fill="#F2F7F6"/>
<path d="M9.0071 3.6649C9.0071 1.64083 10.6351 1.36776e-06 12.6435 1.19219e-06C14.6518 1.01662e-06 16.2798 1.64083 16.2798 3.6649C16.2798 5.68896 14.6518 7.32979 12.6435 7.32979C10.6352 7.32979 9.0071 5.68896 9.0071 3.6649Z" fill="#F2F7F6"/>
</svg>
