<svg width="6" height="6" viewBox="0 0 6 6" fill="none" xmlns="http://www.w3.org/2000/svg">
<path d="M5.52297 1.28033C5.81586 0.987436 5.81586 0.512563 5.52297 0.21967C5.23008 -0.0732234 4.7552 -0.0732234 4.46231 0.21967L2.87132 1.81066L1.28033 0.219671C0.987436 -0.0732224 0.512563 -0.0732224 0.219669 0.219671C-0.0732231 0.512563 -0.0732231 0.987438 0.219669 1.28033L1.81066 2.87132L0.219669 4.46231C-0.0732231 4.75521 -0.0732231 5.23008 0.219669 5.52297C0.512563 5.81586 0.987436 5.81586 1.28033 5.52297L2.87132 3.93198L4.46231 5.52297C4.7552 5.81586 5.23008 5.81586 5.52297 5.52297C5.81586 5.23008 5.81586 4.7552 5.52297 4.46231L3.93198 2.87132L5.52297 1.28033Z" fill="#2E413C"/>
</svg>
