<svg width="116" height="69" viewBox="0 0 116 69" fill="none" xmlns="http://www.w3.org/2000/svg">
<path d="M11.6661 32.3751C9.59225 32.4133 7.54246 31.9238 5.70911 30.952C3.99318 30.0466 2.56299 28.6829 1.57559 27.0122C0.810275 25.7518 0.309499 24.3471 0.104379 22.8872C-0.0993265 21.4259 -0.00454707 19.9391 0.385889 18.516C0.776325 17.0929 1.45251 15.766 2.37485 14.6131C3.29577 13.4616 4.44303 12.5095 5.74448 11.8164C7.57783 10.8431 9.62762 10.3508 11.7015 10.3862C13.2632 10.3664 14.8136 10.6521 16.2664 11.2279C17.2694 11.6438 18.2031 12.2082 19.0363 12.9042C19.1551 13.0032 19.2499 13.1263 19.3192 13.2649C19.3871 13.4036 19.4253 13.5549 19.4324 13.7091C19.438 13.8633 19.4126 14.0175 19.356 14.1604C19.2994 14.3047 19.2131 14.4348 19.1042 14.5423L16.3867 17.291C16.2028 17.4819 15.9552 17.5993 15.6921 17.622C15.4276 17.6446 15.1644 17.5725 14.9494 17.4169C14.6368 17.1792 14.293 16.984 13.9295 16.8354C13.2165 16.5638 12.4583 16.4337 11.6958 16.4478C10.8258 16.4337 9.96854 16.6487 9.20889 17.0731C8.48177 17.4805 7.88056 18.0817 7.47315 18.8088C7.04593 19.5826 6.82949 20.4569 6.84788 21.341C6.82808 22.245 7.0431 23.1376 7.47315 23.9326C7.88056 24.671 8.48743 25.2793 9.22304 25.691C9.97986 26.1083 10.8315 26.3247 11.6958 26.3162C12.4894 26.3304 13.2773 26.1833 14.0115 25.8848C14.3921 25.7235 14.75 25.5127 15.0767 25.2595C15.2904 25.1039 15.5521 25.0289 15.8166 25.0502C16.0797 25.0714 16.3273 25.1845 16.514 25.3713L19.2173 28.0534C19.3277 28.1623 19.414 28.2925 19.4706 28.4368C19.5271 28.5811 19.554 28.7352 19.5484 28.8894C19.5427 29.0436 19.5045 29.1964 19.438 29.335C19.3701 29.4751 19.2753 29.5982 19.1565 29.6986C18.3007 30.4342 17.3387 31.0368 16.3046 31.4867C14.8348 32.0978 13.2561 32.3991 11.6661 32.3737V32.3751Z" fill="#2E413C"/>
<path d="M20.4624 31.2136V1.76404C20.4624 1.45707 20.5869 1.16424 20.8076 0.947803C21.0283 0.731366 21.3282 0.609711 21.6408 0.609711H26.3529C26.6655 0.609711 26.9654 0.731366 27.1861 0.947803C27.4068 1.16424 27.5313 1.45848 27.5313 1.76404V31.2207C27.5313 31.5277 27.4068 31.8205 27.1861 32.037C26.9654 32.2534 26.6655 32.3751 26.3529 32.3751H21.6408C21.4852 32.3751 21.331 32.3454 21.1881 32.2859C21.0452 32.2279 20.9137 32.1416 20.8047 32.0341C20.6958 31.9266 20.6081 31.7979 20.5501 31.6564C20.4921 31.515 20.4624 31.365 20.4624 31.2122V31.2136ZM35.9907 32.3694C35.6781 32.3694 35.3782 32.2477 35.1575 32.0313C34.9368 31.8149 34.8123 31.5206 34.8123 31.2151V19.9716C34.8321 19.4709 34.7444 18.9701 34.5563 18.5033C34.3681 18.0364 34.0838 17.6135 33.7202 17.2598C33.3581 16.9132 32.9295 16.6416 32.4584 16.462C31.9873 16.2823 31.4837 16.1974 30.9787 16.213C30.294 16.2017 29.6178 16.3629 29.0152 16.6826C28.4437 16.9896 27.9712 17.4451 27.6487 17.9997C27.5299 18.2062 27.4308 18.4226 27.3502 18.6461C27.2964 18.7989 27.2102 18.939 27.0956 19.0578C26.981 19.1752 26.8438 19.2672 26.6896 19.328C26.5368 19.3888 26.3713 19.4157 26.2058 19.4086C26.0403 19.4016 25.879 19.3591 25.7319 19.2856L25.1434 19.0012C24.927 18.8979 24.7487 18.7339 24.6299 18.5287C24.5125 18.3236 24.4615 18.0888 24.4828 17.854C24.5591 16.5695 24.9326 15.3175 25.5748 14.1957C26.2892 12.9367 27.3587 11.9041 28.6531 11.2236C30.0267 10.505 31.5658 10.1414 33.1219 10.1683C34.7091 10.1344 36.2807 10.4979 37.6854 11.2236C38.9657 11.8913 40.028 12.8999 40.7481 14.1349C41.4964 15.4519 41.8741 16.9401 41.8402 18.4481V31.2165C41.8402 31.5235 41.7157 31.8163 41.495 32.0327C41.2743 32.2492 40.9744 32.3708 40.6618 32.3708H35.9879L35.9907 32.3694Z" fill="#2E413C"/>
<path d="M52.4695 39.7976V11.9521C52.4695 11.6537 52.5883 11.3679 52.8005 11.1571C53.0127 10.9463 53.2985 10.8275 53.5984 10.8275H58.0728C58.3727 10.8275 58.6585 10.9463 58.8706 11.1571C59.0828 11.3679 59.2017 11.6537 59.2017 11.9521V16.1125C59.2087 16.1904 59.2087 16.2682 59.2017 16.3445L58.1718 21.1939C58.1421 21.3396 58.1421 21.4895 58.1718 21.6366L59.1125 26.4492C59.1196 26.5213 59.1196 26.5949 59.1125 26.667V39.8061C59.1125 40.1045 58.9937 40.3903 58.7815 40.6011C58.5693 40.8119 58.2836 40.9307 57.9837 40.9307H53.5984C53.4498 40.9307 53.3027 40.901 53.1655 40.8444C53.0283 40.7878 52.9038 40.7043 52.7991 40.5983C52.6944 40.4936 52.6109 40.3677 52.5544 40.2304C52.4978 40.0932 52.4695 39.9461 52.4709 39.7976H52.4695ZM65.4161 32.4288C63.9774 32.4458 62.5529 32.1629 61.243 31.597C60.0377 31.0892 58.9866 30.3026 58.1846 29.311C57.4051 28.3462 56.9354 27.1876 56.8336 25.9753V17.0476C56.9383 15.807 57.4164 14.6215 58.2086 13.6299C59.022 12.617 60.0787 11.8022 61.2911 11.2533C62.5784 10.6677 63.9888 10.3706 65.4161 10.3833C67.3824 10.3522 69.3176 10.8516 70.9954 11.822C72.6363 12.7769 73.9788 14.1307 74.8842 15.7419C75.8122 17.4961 76.2946 19.4313 76.2946 21.3933C76.2946 23.3554 75.8122 25.2906 74.8842 27.0448C73.9774 28.6532 72.6392 30.0056 71.0039 30.9647C69.3247 31.9422 67.3867 32.45 65.4161 32.426V32.4288ZM64.1274 26.3728C65.0356 26.3912 65.9324 26.1733 66.7204 25.7433C67.4645 25.3034 68.0699 24.6823 68.4745 23.9439C68.9102 23.1503 69.138 22.2676 69.138 21.3735C69.138 20.4795 68.9102 19.5968 68.4745 18.8032C68.0586 18.0803 67.4518 17.4734 66.7119 17.042C65.924 16.6232 65.0299 16.4181 64.1274 16.4492C63.2164 16.4323 62.3181 16.6501 61.5273 17.0787C60.779 17.5003 60.1693 18.11 59.7647 18.8399C59.3389 19.6364 59.1168 20.5177 59.1168 21.4103C59.1168 22.3029 59.3389 23.1842 59.7647 23.9807C60.1693 24.712 60.779 25.3246 61.5273 25.749C62.3167 26.1804 63.2164 26.3954 64.1274 26.3714V26.3728Z" fill="#2E413C"/>
<path d="M85.0511 32.9876C83.8119 32.9876 82.5769 32.8179 81.3815 32.4798C80.2173 32.1657 79.0998 31.6918 78.0614 31.0708C77.4376 30.7044 76.8463 30.2843 76.2931 29.8146C76.1786 29.7113 76.0852 29.5854 76.0201 29.444C75.9551 29.3025 75.9183 29.1497 75.914 28.9927C75.9098 28.8371 75.9352 28.6815 75.9918 28.5358C76.0484 28.3901 76.1333 28.2585 76.2408 28.1482L78.4688 25.8763C78.6641 25.6797 78.9243 25.5623 79.1988 25.5495C79.4732 25.5368 79.7434 25.6287 79.9542 25.807C81.325 26.95 83.0494 27.5583 84.8191 27.5257C85.4061 27.5569 85.9904 27.4366 86.5194 27.1778C86.709 27.0886 86.8703 26.9458 86.982 26.7661C87.0938 26.5864 87.1532 26.3771 87.1504 26.1635C87.156 25.9159 87.0881 25.6712 86.9552 25.4632C86.8222 25.2553 86.6312 25.0926 86.4077 24.9964C85.7909 24.6993 85.1459 24.4631 84.4838 24.2919C83.6973 24.0727 82.8655 23.8223 82.0026 23.5351C81.1453 23.2536 80.322 22.8787 79.5439 22.4147C78.7645 21.938 78.1109 21.2717 77.6427 20.4767C77.1094 19.4115 76.8562 18.2232 76.9099 17.0293C76.9637 15.8339 77.3216 14.6739 77.9468 13.6639C78.6923 12.6071 79.7066 11.7782 80.8808 11.2633C82.3124 10.6465 83.8571 10.3466 85.4104 10.3848C87.0966 10.3678 88.7701 10.6889 90.3347 11.3312C91.4452 11.7697 92.4566 12.4331 93.3054 13.2847C93.5119 13.4955 93.6265 13.7813 93.6265 14.0798C93.6265 14.3782 93.5105 14.664 93.3054 14.8748L91.0774 17.2146C90.8751 17.4225 90.6006 17.5428 90.3135 17.5512C90.0263 17.5597 89.7462 17.4551 89.5326 17.2598C89.0898 16.8736 88.589 16.5638 88.0472 16.3432C87.289 16.022 86.477 15.8523 85.6565 15.8438C85.0737 15.8042 84.4923 15.9244 83.9703 16.1918C83.8034 16.2795 83.6633 16.4125 83.5643 16.5752C83.4653 16.7378 83.4101 16.9246 83.4059 17.1155C83.4172 17.3447 83.4922 17.5668 83.6237 17.7535C83.7553 17.9403 83.9378 18.0846 84.1485 18.168C84.7568 18.4708 85.3934 18.7098 86.0498 18.8796C86.7925 19.0847 87.6243 19.3266 88.4858 19.6364C89.3529 19.9207 90.1791 20.3197 90.9444 20.8247C91.7224 21.3396 92.3732 22.0314 92.8456 22.8462C93.379 23.8534 93.635 24.9893 93.5883 26.1323C93.6152 27.0872 93.4214 28.0336 93.0211 28.8965C92.6207 29.7594 92.0266 30.5148 91.2853 31.0991C89.7448 32.3553 87.6667 32.9848 85.0468 32.9848L85.0511 32.9876Z" fill="#2E413C"/>
<path d="M43.2815 31.2334V12.1304C43.2815 11.8291 43.4187 11.5405 43.662 11.3283C43.9053 11.1147 44.2364 10.9958 44.5801 10.9958H49.7322C50.0773 10.9958 50.4069 11.1161 50.6503 11.3283C50.8936 11.5419 51.0308 11.8305 51.0308 12.1304V31.2419C51.0308 31.5432 50.8936 31.8318 50.6503 32.044C50.4069 32.2576 50.0759 32.3765 49.7322 32.3765H44.5801C44.4089 32.3765 44.2392 32.3467 44.0808 32.2887C43.9223 32.2307 43.7794 32.1473 43.6578 32.0412C43.5375 31.9351 43.4413 31.8092 43.3763 31.6706C43.3112 31.5319 43.2787 31.3834 43.2801 31.2334H43.2815Z" fill="#2E413C"/>
<path d="M47.1503 7.92471C49.3388 7.92471 51.1127 6.15078 51.1127 3.96236C51.1127 1.77394 49.3388 0 47.1503 0C44.9619 0 43.188 1.77394 43.188 3.96236C43.188 6.15078 44.9619 7.92471 47.1503 7.92471Z" fill="#5BDCB7"/>
<path d="M94.9123 31.2334V12.1304C94.9123 11.8291 95.0496 11.5405 95.2929 11.3283C95.5362 11.1147 95.8672 10.9958 96.211 10.9958H101.363C101.708 10.9958 102.038 11.1161 102.281 11.3283C102.524 11.5419 102.662 11.8305 102.662 12.1304V31.2419C102.662 31.5432 102.524 31.8318 102.281 32.044C102.038 32.2576 101.707 32.3765 101.363 32.3765H96.211C96.0398 32.3765 95.8701 32.3467 95.7116 32.2887C95.5532 32.2307 95.4103 32.1473 95.2886 32.0412C95.1684 31.9351 95.0722 31.8092 95.0071 31.6706C94.9421 31.5319 94.9095 31.3834 94.9109 31.2334H94.9123Z" fill="#2E413C"/>
<path d="M98.7812 7.92471C100.97 7.92471 102.744 6.15078 102.744 3.96236C102.744 1.77394 100.97 0 98.7812 0C96.5928 0 94.8188 1.77394 94.8188 3.96236C94.8188 6.15078 96.5928 7.92471 98.7812 7.92471Z" fill="#5BDCB7"/>
<path d="M8.26264 67.5496V39.4878C8.26264 39.0125 8.64742 38.6277 9.12273 38.6277H14.0385C14.5139 38.6277 14.8986 39.0125 14.8986 39.4878V43.883C14.8986 43.9424 14.893 44.0018 14.8802 44.0598L13.8575 48.9304C13.8334 49.0436 13.8334 49.1596 13.8546 49.2713L14.7968 54.1037C14.8067 54.1574 14.8123 54.2126 14.8123 54.2678V67.5468C14.8123 68.0221 14.4276 68.4069 13.9523 68.4069H9.12132C8.64601 68.4069 8.26123 68.0221 8.26123 67.5468L8.26264 67.5496ZM20.4171 60.0055C18.9798 60.0055 17.6727 59.7324 16.4943 59.1864C15.316 58.6404 14.3611 57.8864 13.6283 56.923C12.9069 55.9752 12.4839 54.893 12.3622 53.6807C12.358 53.6453 12.3566 53.6085 12.3566 53.5732V44.845C12.3566 44.8096 12.358 44.7742 12.3622 44.7389C12.4839 43.4968 12.9139 42.3863 13.6495 41.4088C14.3964 40.4172 15.3584 39.6349 16.5368 39.0606C17.7137 38.4862 19.0067 38.1991 20.4157 38.1991C22.3693 38.1991 24.1149 38.673 25.6526 39.6222C27.1889 40.57 28.404 41.8629 29.2952 43.5011C30.185 45.1392 30.6307 47.0079 30.6307 49.1044C30.6307 51.2009 30.1921 53.0625 29.3165 54.6851C28.4394 56.3091 27.2257 57.602 25.6752 58.564C24.1234 59.5273 22.3707 60.0083 20.4171 60.0083V60.0055ZM19.1666 54.0145C20.0861 54.0145 20.8966 53.8066 21.6025 53.3893C22.3056 52.9734 22.8672 52.392 23.2831 51.6436C23.699 50.8967 23.9084 50.0494 23.9084 49.1016C23.9084 48.1538 23.699 47.3064 23.2831 46.5581C22.8658 45.8112 22.3127 45.2297 21.6238 44.8124C20.9348 44.3965 20.1299 44.1872 19.2104 44.1872C18.2909 44.1872 17.4789 44.3951 16.7758 44.8124C16.0714 45.2297 15.5182 45.8112 15.1165 46.5581C14.7133 47.3064 14.5139 48.1524 14.5139 49.1016C14.5139 50.0508 14.7147 50.8967 15.1165 51.6436C15.5182 52.392 16.0714 52.9734 16.7758 53.3893C17.4789 53.8066 18.2768 54.0145 19.168 54.0145H19.1666Z" fill="#2E413C"/>
<path d="M41.3716 60.0479C39.4746 60.0479 37.7728 59.6447 36.2648 58.8412C34.7568 58.0363 33.5855 56.9386 32.7523 55.5437C31.9191 54.1503 31.5032 52.5476 31.5032 50.7383V39.4878C31.5032 39.0125 31.8879 38.6277 32.3633 38.6277H37.2791C37.7544 38.6277 38.1392 39.0125 38.1392 39.4878V50.652C38.1392 51.3706 38.2693 51.9959 38.5268 52.5263C38.7856 53.0582 39.1591 53.4671 39.6472 53.7542C40.1352 54.0414 40.7095 54.1857 41.3716 54.1857C42.3477 54.1857 43.1172 53.8702 43.6774 53.2379C44.2376 52.6056 44.5177 51.7441 44.5177 50.652V39.4878C44.5177 39.0125 44.9025 38.6277 45.3778 38.6277H50.2936C50.7689 38.6277 51.1537 39.0125 51.1537 39.4878V50.7383C51.1537 52.5773 50.7449 54.1942 49.9258 55.5876C49.1067 56.981 47.9651 58.0731 46.4996 58.8639C45.034 59.6532 43.3238 60.0493 41.3716 60.0493V60.0479Z" fill="#2E413C"/>
<path d="M52.4553 58.7139V39.4878C52.4553 39.0125 52.8401 38.6277 53.3154 38.6277H58.2312C58.7065 38.6277 59.0913 39.0125 59.0913 39.4878V58.7139C59.0913 59.1892 58.7065 59.574 58.2312 59.574H53.3154C52.8401 59.574 52.4553 59.1892 52.4553 58.7139ZM67.1943 59.574C66.719 59.574 66.3342 59.1892 66.3342 58.7139V47.636C66.3342 46.5736 65.989 45.7036 65.3001 45.0288C64.6112 44.3541 63.7483 44.016 62.7142 44.016C62.0238 44.016 61.4056 44.1673 60.861 44.4687C60.315 44.77 59.8835 45.1944 59.568 45.7404C59.4167 46.0007 59.3021 46.2822 59.2229 46.5821C59.0871 47.097 58.4986 47.3446 58.0205 47.1098L57.0472 46.6316C56.7317 46.476 56.5478 46.1436 56.5676 45.7913C56.6468 44.3979 57.0076 43.1601 57.6498 42.0765C58.3826 40.8416 59.3884 39.8853 60.6672 39.2105C61.9446 38.5357 63.3889 38.1976 64.9988 38.1976C66.5209 38.1976 67.886 38.5569 69.0927 39.2756C70.2994 39.9942 71.2472 40.9632 71.9375 42.1855C72.6278 43.4063 72.9716 44.736 72.9716 46.1719V58.7153C72.9716 59.1906 72.5868 59.5754 72.1115 59.5754H67.1957L67.1943 59.574Z" fill="#2E413C"/>
<path d="M80.2595 44.7035V58.7125C80.2595 59.1878 80.6443 59.5726 81.1196 59.5726H86.0354C86.5107 59.5726 86.8955 59.1878 86.8955 58.7125V44.7035C86.8955 44.2282 87.2803 43.8434 87.7556 43.8434H92.7648C93.2401 43.8434 93.6249 43.4586 93.6249 42.9833V39.0577C93.6249 38.5824 93.2401 38.1976 92.7648 38.1976H80.2878" fill="#2E413C"/>
<path d="M86.7428 44.7035V58.7125C86.7428 59.1878 86.358 59.5726 85.8827 59.5726H80.9669C80.4916 59.5726 80.1068 59.1878 80.1068 58.7125V44.7035C80.1068 44.2282 79.722 43.8434 79.2467 43.8434H74.2375C73.7622 43.8434 73.3774 43.4586 73.3774 42.9833V39.0577C73.3774 38.5824 73.7622 38.1976 74.2375 38.1976H86.7145" fill="#2E413C"/>
<path fill-rule="evenodd" clip-rule="evenodd" d="M114.674 54.4785L114.698 54.4403L114.7 54.4389H114.694C115.525 52.8701 116 51.0849 116 49.1864C116 42.9805 110.968 37.9487 104.762 37.9487C98.5562 37.9487 93.5244 42.9805 93.5244 49.1864C93.5244 51.0849 93.9997 52.8701 94.8301 54.4389H94.8259L94.8471 54.4729C95.0522 54.8591 95.2828 55.2297 95.5318 55.5876L103.243 68.1381C103.939 69.2698 105.584 69.2698 106.28 68.1381L113.995 55.5834C114.242 55.2297 114.469 54.8619 114.674 54.4785ZM99.5932 48.5498C99.6314 45.6951 101.975 43.4119 104.83 43.4487C107.685 43.4869 109.968 45.8309 109.931 48.6856C109.893 51.5404 107.549 53.8236 104.694 53.7868C101.84 53.7486 99.5564 51.4046 99.5932 48.5498Z" fill="#5BDCB7"/>
</svg>
